<svg width="365" height="49" viewBox="0 0 365 49" fill="none" xmlns="http://www.w3.org/2000/svg">
<path d="M35.96 46.95C35.3533 46.1567 34.84 45.2933 34.42 44.36C34 43.38 33.5567 42.2133 33.09 40.86C32.9967 40.6267 32.7167 39.9267 32.25 38.76C31.83 37.5933 31.34 36.59 30.78 35.75C27.84 36.17 25.4367 36.38 23.57 36.38C22.5433 36.38 21.4 36.3567 20.14 36.31C18.9267 36.2167 18.0167 36.17 17.41 36.17C15.0767 35.9833 13.21 35.89 11.81 35.89C11.25 36.6367 10.76 37.43 10.34 38.27C9.96667 39.11 9.47667 40.37 8.87 42.05C8.03 44.4767 7.30667 46.2033 6.7 47.23C6.28 47.93 5.46333 48.28 4.25 48.28C3.22333 48.28 2.26667 48.07 1.38 47.65C0.54 47.1833 0.12 46.5533 0.12 45.76C0.493333 43.9867 1.07667 42.12 1.87 40.16C2.71 38.1533 3.9 35.4933 5.44 32.18L8.24 25.32C9.78 21.4 11.18 18.04 12.44 15.24C13.7467 12.44 15.45 9.12667 17.55 5.3C17.83 4.74 18.2967 4.27333 18.95 3.9C19.6033 3.48 20.3267 3.27 21.12 3.27C22.0067 3.27 22.6367 3.34 23.01 3.48C23.43 3.57333 23.7567 3.76 23.99 4.04C24.2233 4.27333 24.5733 4.78667 25.04 5.58C26.6267 8.05333 27.98 10.5967 29.1 13.21C30.2667 15.8233 31.7367 19.44 33.51 24.06L34.98 27.77C36.2867 31.13 37.4067 33.9533 38.34 36.24C39.32 38.48 40.3933 40.5333 41.56 42.4C42.3067 43.6133 42.68 44.4533 42.68 44.92C42.68 46.04 42.33 46.9033 41.63 47.51C40.9767 48.07 40.1133 48.35 39.04 48.35C37.6867 48.35 36.66 47.8833 35.96 46.95ZM28.75 30.01C28.0033 28.4233 26.93 25.67 25.53 21.75C24.0833 17.55 22.6367 14.2133 21.19 11.74C20.3033 13.98 18.9967 16.8733 17.27 20.42C16.1033 22.6133 14.7733 25.7867 13.28 29.94C16.2667 30.3133 19.4867 30.5 22.94 30.5C25.4133 30.5 27.35 30.3367 28.75 30.01ZM67.0854 32.25C67.4587 32.4833 68.1821 32.9267 69.2554 33.58C70.3754 34.1867 71.1221 34.91 71.4954 35.75C71.8687 36.59 72.0554 37.7567 72.0554 39.25C72.0554 40.93 71.5654 42.4233 70.5854 43.73C69.6054 44.99 68.3454 45.97 66.8054 46.67C65.6854 47.1833 64.3087 47.58 62.6754 47.86C61.0887 48.14 59.8287 48.28 58.8954 48.28C57.9621 48.28 56.7487 48.14 55.2554 47.86C53.8087 47.58 52.8054 47.3233 52.2454 47.09C50.7987 46.25 49.5387 45.2233 48.4654 44.01C47.4387 42.7967 46.9254 41.56 46.9254 40.3C46.9254 39.3667 47.2287 38.6433 47.8354 38.13C48.4421 37.57 49.2354 37.29 50.2154 37.29C50.6821 37.29 51.1721 37.4767 51.6854 37.85C52.1987 38.1767 52.5487 38.5267 52.7354 38.9C53.2487 40.1133 54.1121 41.0233 55.3254 41.63C56.5387 42.2367 57.7754 42.54 59.0354 42.54C60.6687 42.54 62.1854 42.2833 63.5854 41.77C64.9854 41.21 65.6854 40.4633 65.6854 39.53C65.6854 39.11 65.5687 38.7833 65.3354 38.55C65.1487 38.27 64.8687 37.99 64.4954 37.71C63.8421 37.2433 62.8621 36.87 61.5554 36.59C60.2487 36.2633 59.4087 36.0533 59.0354 35.96C57.1221 35.54 55.2554 34.91 53.4354 34.07C51.6154 33.1833 50.1687 32.1333 49.0954 30.92C48.0221 29.7067 47.4854 28.1433 47.4854 26.23C47.4854 24.97 47.9521 23.6633 48.8854 22.31C49.8187 20.91 50.8687 19.93 52.0354 19.37C52.8754 19.0433 54.2754 18.6933 56.2354 18.32C58.2421 17.9467 59.5954 17.76 60.2954 17.76C61.3687 17.76 62.5354 17.8767 63.7954 18.11C65.0554 18.2967 66.0121 18.6233 66.6654 19.09C67.9254 19.8367 68.9521 20.63 69.7454 21.47C70.5387 22.2633 70.9354 23.1733 70.9354 24.2C70.9354 24.7133 70.8187 25.2733 70.5854 25.88C70.3521 26.44 70.0721 26.79 69.7454 26.93C69.0454 27.2567 68.2287 27.42 67.2954 27.42C66.8754 27.42 66.5254 27.3033 66.2454 27.07C66.0121 26.8367 65.6854 26.4633 65.2654 25.95C64.7521 25.1567 64.2621 24.69 63.7954 24.55C63.2354 24.41 62.4187 24.2467 61.3454 24.06C60.2721 23.8267 59.5487 23.71 59.1754 23.71C58.1021 23.71 56.9821 24.0133 55.8154 24.62C54.6954 25.2267 54.1354 25.9267 54.1354 26.72C54.1354 27.14 54.2987 27.4667 54.6254 27.7C54.9987 27.9333 55.3721 28.1433 55.7454 28.33C56.1654 28.5167 56.4454 28.6333 56.5854 28.68C57.5654 29.1467 58.6387 29.5433 59.8054 29.87C61.0187 30.1967 61.7654 30.4067 62.0454 30.5C64.5654 31.1067 66.2454 31.69 67.0854 32.25ZM98.2573 32.88C98.6306 33.1133 99.3539 33.5567 100.427 34.21C101.547 34.8167 102.294 35.54 102.667 36.38C103.041 37.22 103.227 38.3867 103.227 39.88C103.227 41.56 102.737 43.0533 101.757 44.36C100.777 45.62 99.5173 46.6 97.9773 47.3C96.9039 47.7667 95.7373 48.0467 94.4773 48.14C93.2639 48.2333 91.7939 48.28 90.0673 48.28C89.1339 48.28 87.9206 48.14 86.4273 47.86C84.9806 47.58 83.9773 47.3233 83.4173 47.09C81.9239 46.25 80.6639 45.27 79.6373 44.15C78.6106 43.03 78.0973 41.8867 78.0973 40.72C78.0973 39.7867 78.4006 39.04 79.0073 38.48C79.6139 37.92 80.4073 37.64 81.3873 37.64C81.9006 37.64 82.3906 37.78 82.8573 38.06C83.3706 38.2933 83.7206 38.5733 83.9073 38.9C84.4206 40.1133 85.2839 41.0233 86.4973 41.63C87.7106 42.2367 88.9473 42.54 90.2073 42.54C94.6406 42.54 96.8573 41.7467 96.8573 40.16C96.8573 39.74 96.7406 39.4133 96.5073 39.18C96.3206 38.9 96.0406 38.62 95.6673 38.34C95.0606 37.92 94.1973 37.4767 93.0773 37.01C92.0039 36.5433 91.0473 36.1933 90.2073 35.96C88.2939 35.54 86.4273 34.91 84.6073 34.07C82.9273 33.23 81.5506 32.1333 80.4773 30.78C79.4039 29.38 78.8673 27.6767 78.8673 25.67C78.8673 24.4567 79.3106 23.2667 80.1973 22.1C81.1306 20.8867 82.2039 19.9767 83.4173 19.37C84.2573 19.0433 85.6339 18.6933 87.5473 18.32C89.4606 17.9467 90.7673 17.76 91.4673 17.76C92.5406 17.76 93.7073 17.8767 94.9673 18.11C96.2273 18.2967 97.1839 18.6233 97.8373 19.09C99.0973 19.8367 100.124 20.63 100.917 21.47C101.711 22.2633 102.107 23.1733 102.107 24.2C102.107 24.7133 101.991 25.2733 101.757 25.88C101.524 26.44 101.244 26.79 100.917 26.93C100.217 27.2567 99.4006 27.42 98.4673 27.42C98.0473 27.42 97.6973 27.3033 97.4173 27.07C97.1839 26.8367 96.8573 26.4633 96.4373 25.95C95.9239 25.1567 95.4339 24.69 94.9673 24.55C94.4073 24.41 93.5906 24.2467 92.5173 24.06C91.4439 23.8267 90.7206 23.71 90.3473 23.71C89.1806 23.71 88.0606 23.9433 86.9873 24.41C85.9606 24.8767 85.4473 25.5067 85.4473 26.3C85.4473 27.2333 86.2173 28.0267 87.7573 28.68C88.7373 29.1467 89.8106 29.5433 90.9773 29.87C92.1906 30.1967 92.9373 30.4067 93.2173 30.5C93.8706 30.64 94.7106 30.9667 95.7373 31.48C96.8106 31.9933 97.6506 32.46 98.2573 32.88ZM108.499 24.41C108.126 24.41 107.776 24.27 107.449 23.99C107.169 23.6633 107.029 23.29 107.029 22.87C107.029 21.7967 107.496 20.7933 108.429 19.86C108.709 19.72 109.269 19.4867 110.109 19.16C110.949 18.8333 111.696 18.67 112.349 18.67C114.122 18.67 115.569 19.16 116.689 20.14C117.809 21.0733 118.369 22.4267 118.369 24.2C118.369 24.7133 118.276 25.81 118.089 27.49C117.902 29.45 117.809 30.9667 117.809 32.04C117.809 35.3067 118.252 37.9433 119.139 39.95C119.466 40.6033 119.979 41.1167 120.679 41.49C121.379 41.8633 122.009 42.05 122.569 42.05C123.922 42.05 125.019 41.8167 125.859 41.35C126.699 40.8833 127.609 40.1367 128.589 39.11C129.569 38.0833 130.199 36.9167 130.479 35.61C130.806 34.3033 131.039 32.5067 131.179 30.22C131.272 28.7267 131.366 27.63 131.459 26.93C131.692 24.69 131.809 22.7767 131.809 21.19C131.809 20.1633 132.089 19.3233 132.649 18.67C133.209 17.97 133.979 17.62 134.959 17.62C135.519 17.62 136.149 17.8067 136.849 18.18C137.596 18.5067 138.086 18.9033 138.319 19.37C138.599 19.8367 138.739 20.6067 138.739 21.68C138.739 22.24 138.669 22.7767 138.529 23.29C138.202 24.4567 138.039 25.8567 138.039 27.49L138.109 31.13C138.109 34.4433 138.342 36.8933 138.809 38.48C139.042 39.2267 139.369 39.9967 139.789 40.79C140.209 41.5367 140.606 42.1667 140.979 42.68C141.912 43.7067 142.519 44.43 142.799 44.85C143.079 45.2233 143.219 45.5967 143.219 45.97C143.219 46.53 142.939 47.0667 142.379 47.58C141.866 48.0467 141.306 48.28 140.699 48.28C138.972 48.28 137.479 47.6967 136.219 46.53C134.959 45.3633 134.026 43.8467 133.419 41.98C131.832 43.8 130.362 45.27 129.009 46.39C128.076 47.0433 126.932 47.5333 125.579 47.86C124.226 48.14 122.872 48.28 121.519 48.28C119.699 48.28 117.856 47.5333 115.989 46.04C114.122 44.5467 112.862 42.82 112.209 40.86C112.162 40.7667 112.022 40.3933 111.789 39.74C111.602 39.0867 111.509 38.1067 111.509 36.8C111.509 35.0733 111.602 32.9033 111.789 30.29C111.929 28.61 111.999 27.07 111.999 25.67C111.999 25.25 111.836 24.9 111.509 24.62C111.229 24.34 110.902 24.2 110.529 24.2C110.249 24.2 109.922 24.2467 109.549 24.34C109.222 24.3867 108.872 24.41 108.499 24.41ZM158.251 45.2C158.157 45.9933 157.831 46.6933 157.271 47.3C156.711 47.9067 155.987 48.21 155.101 48.21C153.701 48.21 152.674 47.9533 152.021 47.44C151.367 46.88 151.041 45.8767 151.041 44.43C151.041 42.47 151.157 40.3233 151.391 37.99C151.577 35.2833 151.671 33.2067 151.671 31.76C151.671 31.0133 151.624 30.08 151.531 28.96C151.437 27.9333 151.391 27.1633 151.391 26.65C151.251 25.8567 150.924 25.2267 150.411 24.76C149.944 24.2933 149.197 23.8967 148.171 23.57C147.751 23.3833 147.401 23.08 147.121 22.66C146.841 22.1933 146.701 21.7733 146.701 21.4C146.701 20.3267 147.121 19.51 147.961 18.95C148.801 18.39 149.827 18.11 151.041 18.11C152.394 18.11 153.561 18.5767 154.541 19.51C155.521 20.4433 156.267 21.61 156.781 23.01C157.854 21.47 159.161 20.2333 160.701 19.3C162.287 18.3667 163.827 17.9 165.321 17.9C167.234 17.9 168.844 18.2267 170.151 18.88C171.504 19.4867 172.181 20.56 172.181 22.1C172.181 22.9867 171.784 23.92 170.991 24.9C170.244 25.8333 169.474 26.3 168.681 26.3C168.074 26.3 167.351 26.02 166.511 25.46C166.184 25.2267 165.811 25.04 165.391 24.9C165.017 24.7133 164.621 24.62 164.201 24.62C163.454 24.62 162.754 24.7367 162.101 24.97C161.447 25.2033 161.004 25.4833 160.771 25.81C160.024 26.9767 159.464 28.0267 159.091 28.96C158.764 29.8933 158.601 30.8967 158.601 31.97C158.601 32.7633 158.577 33.3933 158.531 33.86L158.461 37.85L158.531 40.51C158.531 42.47 158.437 44.0333 158.251 45.2ZM175.643 31.97C175.643 29.1233 176.273 26.7667 177.533 24.9C178.793 22.9867 180.543 21.19 182.783 19.51C183.436 19.0433 184.533 18.6467 186.073 18.32C187.613 17.9467 188.966 17.76 190.133 17.76C191.533 17.76 193.003 18.0633 194.543 18.67C196.129 19.23 197.413 19.8833 198.393 20.63C200.119 21.89 201.309 23.36 201.963 25.04C202.616 26.6733 202.943 28.6333 202.943 30.92C202.943 31.9 202.383 32.8567 201.263 33.79C200.189 34.6767 199.023 35.12 197.763 35.12L195.103 35.05C193.749 35.05 191.813 35.0967 189.293 35.19L187.823 35.26C186.796 35.3533 186.026 35.4 185.513 35.4C184.766 35.4 183.739 35.3067 182.433 35.12C182.619 37.3133 183.436 39.04 184.883 40.3C186.329 41.5133 187.893 42.12 189.573 42.12C192.513 42.12 194.566 41.5367 195.733 40.37C196.713 39.67 197.366 39.2267 197.693 39.04C198.019 38.8533 198.533 38.76 199.233 38.76C199.979 38.76 200.633 39.11 201.193 39.81C201.753 40.51 202.033 41.21 202.033 41.91C202.033 42.7033 201.543 43.52 200.563 44.36C199.629 45.1533 198.346 45.9933 196.713 46.88C195.826 47.2533 194.613 47.58 193.073 47.86C191.533 48.14 190.249 48.28 189.223 48.28C187.589 48.28 185.769 47.8133 183.763 46.88C181.756 45.9 180.263 44.8267 179.283 43.66C178.303 42.4933 177.439 40.8367 176.693 38.69C175.993 36.5433 175.643 34.3033 175.643 31.97ZM189.573 30.08C192.886 30.08 195.313 29.9633 196.853 29.73C196.759 28.3767 196.339 27.28 195.593 26.44C194.846 25.5533 193.819 24.8067 192.513 24.2C192.093 24.0133 191.719 23.8733 191.393 23.78C191.066 23.6867 190.693 23.64 190.273 23.64C188.126 23.64 186.306 24.2233 184.813 25.39C183.366 26.5567 182.503 28.05 182.223 29.87C184.556 30.01 187.006 30.08 189.573 30.08ZM237.495 4.18C237.495 4.64666 237.379 5.93 237.145 8.03C236.632 13.1633 236.375 18.3667 236.375 23.64C236.375 28.26 236.445 31.7833 236.585 34.21C236.725 36.6367 237.075 38.5033 237.635 39.81C238.195 41.07 239.059 41.7 240.225 41.7C242.465 41.7 243.585 42.4467 243.585 43.94C243.585 44.92 243.095 45.76 242.115 46.46C241.135 47.1133 240.062 47.44 238.895 47.44C237.495 47.44 236.189 47.1133 234.975 46.46C233.762 45.8067 232.805 44.8033 232.105 43.45C231.125 44.8967 229.702 46.0633 227.835 46.95C226.015 47.79 224.242 48.21 222.515 48.21C219.855 48.21 217.499 47.65 215.445 46.53C213.392 45.41 211.805 43.8933 210.685 41.98C209.565 40.02 209.005 37.8733 209.005 35.54C209.005 33.3 209.262 31.1533 209.775 29.1C210.335 27 211.082 25.2733 212.015 23.92C213.275 22.1467 214.955 20.7467 217.055 19.72C219.202 18.6467 221.302 18.11 223.355 18.11C224.615 18.11 225.805 18.3667 226.925 18.88C228.045 19.3467 229.025 19.93 229.865 20.63C229.865 17.5033 229.842 15.5433 229.795 14.75V13.28C229.795 8.94 230.075 5.76666 230.635 3.76C231.149 1.8 232.385 0.819998 234.345 0.819998C235.419 0.819998 236.212 1.05333 236.725 1.52C237.239 1.98666 237.495 2.87333 237.495 4.18ZM215.935 35.4C215.935 37.5467 216.542 39.2733 217.755 40.58C219.015 41.8867 220.509 42.54 222.235 42.54C224.709 42.54 226.529 41.77 227.695 40.23C228.909 38.69 229.515 36.7067 229.515 34.28L229.445 27.35C227.625 25.3433 225.735 24.34 223.775 24.34C222.422 24.34 221.139 24.69 219.925 25.39C218.759 26.0433 217.825 27.0467 217.125 28.4C216.332 29.94 215.935 32.2733 215.935 35.4ZM269.959 26.79C269.259 26.79 268.652 26.6267 268.139 26.3C267.672 25.9267 267.182 25.4367 266.669 24.83C266.155 24.2233 265.595 23.8267 264.989 23.64C264.429 23.4533 263.775 23.36 263.029 23.36C261.675 23.36 260.345 23.78 259.039 24.62C257.779 25.4133 256.729 26.5333 255.889 27.98C255.095 29.4267 254.699 31.0367 254.699 32.81C254.699 34.77 255.072 36.4033 255.819 37.71C256.612 39.0167 257.849 40.16 259.529 41.14C260.135 41.4667 260.835 41.7233 261.629 41.91C262.469 42.0967 263.192 42.19 263.799 42.19C265.245 42.19 267.112 41.56 269.399 40.3C269.585 40.2067 269.935 40.0433 270.449 39.81C271.009 39.53 271.429 39.39 271.709 39.39C272.222 39.39 272.805 39.6467 273.459 40.16C274.112 40.6267 274.439 41.21 274.439 41.91C274.439 43.31 273.832 44.5 272.619 45.48C271.452 46.46 269.982 47.1833 268.209 47.65C266.435 48.1167 264.685 48.35 262.959 48.35C260.205 48.35 257.639 47.72 255.259 46.46C252.879 45.2 250.989 43.45 249.589 41.21C248.189 38.97 247.489 36.45 247.489 33.65C247.489 30.6167 248.165 27.8867 249.519 25.46C250.872 22.9867 252.692 21.05 254.979 19.65C257.312 18.2033 259.832 17.48 262.539 17.48C265.152 17.48 267.555 17.9933 269.749 19.02C271.989 20.0467 273.109 21.61 273.109 23.71C273.109 25.7633 272.059 26.79 269.959 26.79ZM311.824 44.64C311.824 45.6667 311.264 46.53 310.144 47.23C309.024 47.93 307.997 48.28 307.064 48.28C305.337 48.28 303.937 48.07 302.864 47.65C301.837 47.1833 300.857 46.3433 299.924 45.13C298.757 46.2033 297.124 47.02 295.024 47.58C292.924 48.0933 290.987 48.35 289.214 48.35C286.321 48.35 283.917 47.58 282.004 46.04C280.137 44.4533 279.204 42.1433 279.204 39.11C279.204 37.8033 279.601 36.4967 280.394 35.19C281.187 33.8367 282.167 32.7633 283.334 31.97C284.594 31.13 286.017 30.57 287.604 30.29C289.191 29.9633 291.034 29.8 293.134 29.8C294.114 29.8 295.281 29.9867 296.634 30.36C297.987 30.7333 299.061 31.13 299.854 31.55V30.43C299.854 27.91 299.224 26.1833 297.964 25.25C296.751 24.27 294.791 23.78 292.084 23.78C291.244 23.78 290.474 23.92 289.774 24.2C289.121 24.4333 288.351 24.7833 287.464 25.25C286.624 25.7167 285.831 25.95 285.084 25.95C284.431 25.95 283.801 25.6933 283.194 25.18C282.587 24.62 282.284 24.0367 282.284 23.43C282.284 21.47 283.497 20.0467 285.924 19.16C288.397 18.2267 290.917 17.76 293.484 17.76C294.791 17.76 296.284 18.04 297.964 18.6C299.644 19.1133 301.067 19.8367 302.234 20.77C303.634 21.9367 304.707 23.3367 305.454 24.97C306.247 26.6033 306.644 28.3767 306.644 30.29C306.644 30.8967 306.597 31.8067 306.504 33.02C306.411 34.3267 306.364 35.4467 306.364 36.38L306.294 38.27C306.201 39.2967 306.154 40.1133 306.154 40.72C306.154 41.28 306.341 41.77 306.714 42.19C307.134 42.5633 307.624 42.75 308.184 42.75L310.144 42.68C310.657 42.68 311.054 42.89 311.334 43.31C311.661 43.6833 311.824 44.1267 311.824 44.64ZM289.214 42.82C291.221 42.82 292.901 42.61 294.254 42.19C295.607 41.77 297.241 41 299.154 39.88C299.341 39.0867 299.457 38.0367 299.504 36.73C296.937 35.5167 294.814 34.91 293.134 34.91C291.547 34.91 290.264 34.98 289.284 35.12C288.304 35.2133 287.417 35.61 286.624 36.31C285.831 37.01 285.434 38.13 285.434 39.67C285.434 40.5567 285.854 41.3033 286.694 41.91C287.581 42.5167 288.421 42.82 289.214 42.82ZM326.073 45.2C325.979 45.9933 325.653 46.6933 325.093 47.3C324.533 47.9067 323.809 48.21 322.923 48.21C321.523 48.21 320.496 47.9533 319.843 47.44C319.189 46.88 318.863 45.8767 318.863 44.43C318.863 42.47 318.979 40.3233 319.213 37.99C319.399 35.2833 319.493 33.2067 319.493 31.76C319.493 31.0133 319.446 30.08 319.353 28.96C319.259 27.9333 319.213 27.1633 319.213 26.65C319.073 25.8567 318.746 25.2267 318.233 24.76C317.766 24.2933 317.019 23.8967 315.993 23.57C315.573 23.3833 315.223 23.08 314.943 22.66C314.663 22.1933 314.523 21.7733 314.523 21.4C314.523 20.3267 314.943 19.51 315.783 18.95C316.623 18.39 317.649 18.11 318.863 18.11C320.216 18.11 321.383 18.5767 322.363 19.51C323.343 20.4433 324.089 21.61 324.603 23.01C325.676 21.47 326.983 20.2333 328.523 19.3C330.109 18.3667 331.649 17.9 333.143 17.9C335.056 17.9 336.666 18.2267 337.973 18.88C339.326 19.4867 340.003 20.56 340.003 22.1C340.003 22.9867 339.606 23.92 338.813 24.9C338.066 25.8333 337.296 26.3 336.503 26.3C335.896 26.3 335.173 26.02 334.333 25.46C334.006 25.2267 333.633 25.04 333.213 24.9C332.839 24.7133 332.443 24.62 332.023 24.62C331.276 24.62 330.576 24.7367 329.923 24.97C329.269 25.2033 328.826 25.4833 328.593 25.81C327.846 26.9767 327.286 28.0267 326.913 28.96C326.586 29.8933 326.423 30.8967 326.423 31.97C326.423 32.7633 326.399 33.3933 326.353 33.86L326.283 37.85L326.353 40.51C326.353 42.47 326.259 44.0333 326.073 45.2ZM344.165 23.78C343.512 23.6867 342.975 23.4067 342.555 22.94C342.182 22.4733 341.995 21.9133 341.995 21.26C341.995 20.9333 342.065 20.5833 342.205 20.21C342.392 19.8367 342.648 19.51 342.975 19.23C343.582 18.6233 345.215 18.32 347.875 18.32C348.248 16.5 348.435 14.6567 348.435 12.79C348.435 12.09 348.412 11.4833 348.365 10.97C348.318 10.4567 348.295 10.06 348.295 9.78C348.295 8.75333 348.668 7.98333 349.415 7.47C350.208 6.95666 351.095 6.7 352.075 6.7C353.288 6.7 354.105 7.00333 354.525 7.61C354.992 8.21667 355.225 9.33667 355.225 10.97C355.225 13.3967 355.015 15.7767 354.595 18.11C355.342 18.11 356.368 18.0633 357.675 17.97C359.448 17.8767 360.732 17.83 361.525 17.83C362.318 17.83 362.995 18.04 363.555 18.46C364.162 18.8333 364.465 19.37 364.465 20.07C364.465 21.89 363.648 22.9633 362.015 23.29C360.288 23.71 357.605 23.9667 353.965 24.06C353.825 25.88 353.755 27.8633 353.755 30.01C353.755 33.37 353.965 36.1233 354.385 38.27C354.665 39.7633 355.132 40.86 355.785 41.56C356.485 42.2133 357.512 42.54 358.865 42.54C359.658 42.54 360.475 42.33 361.315 41.91C361.875 41.5833 362.388 41.42 362.855 41.42C363.508 41.42 363.975 41.63 364.255 42.05C364.582 42.47 364.745 43.03 364.745 43.73C364.745 45.0367 364.045 46.1333 362.645 47.02C361.245 47.86 359.448 48.28 357.255 48.28C355.902 48.28 354.525 47.9533 353.125 47.3C351.772 46.6467 350.628 45.83 349.695 44.85C349.555 44.71 349.298 44.1733 348.925 43.24C348.552 42.3067 348.225 41.3033 347.945 40.23C347.478 38.0367 347.245 34.9567 347.245 30.99C347.245 29.2633 347.338 26.9533 347.525 24.06L344.165 23.78Z" fill="white"/>
</svg>
