<svg width="178" height="24" viewBox="0 0 178 24" fill="none" xmlns="http://www.w3.org/2000/svg">
<path d="M17.952 22.49C17.6573 22.1047 17.408 21.6853 17.204 21.232C17 20.756 16.7847 20.1893 16.558 19.532C16.5127 19.4187 16.3767 19.0787 16.15 18.512C15.946 17.9453 15.708 17.458 15.436 17.05C14.008 17.254 12.8407 17.356 11.934 17.356C11.4353 17.356 10.88 17.3447 10.268 17.322C9.67867 17.2767 9.23667 17.254 8.942 17.254C7.80867 17.1633 6.902 17.118 6.222 17.118C5.95 17.4807 5.712 17.866 5.508 18.274C5.32667 18.682 5.08867 19.294 4.794 20.11C4.386 21.2887 4.03467 22.1273 3.74 22.626C3.536 22.966 3.13933 23.136 2.55 23.136C2.05133 23.136 1.58667 23.034 1.156 22.83C0.748 22.6033 0.544 22.2973 0.544 21.912C0.725333 21.0507 1.00867 20.144 1.394 19.192C1.802 18.2173 2.38 16.9253 3.128 15.316L4.488 11.984C5.236 10.08 5.916 8.448 6.528 7.088C7.16267 5.728 7.99 4.11867 9.01 2.26C9.146 1.988 9.37267 1.76133 9.69 1.58C10.0073 1.376 10.3587 1.274 10.744 1.274C11.1747 1.274 11.4807 1.308 11.662 1.376C11.866 1.42133 12.0247 1.512 12.138 1.648C12.2513 1.76133 12.4213 2.01067 12.648 2.396C13.4187 3.59733 14.076 4.83267 14.62 6.102C15.1867 7.37133 15.9007 9.128 16.762 11.372L17.476 13.174C18.1107 14.806 18.6547 16.1773 19.108 17.288C19.584 18.376 20.1053 19.3733 20.672 20.28C21.0347 20.8693 21.216 21.2773 21.216 21.504C21.216 22.048 21.046 22.4673 20.706 22.762C20.3887 23.034 19.9693 23.17 19.448 23.17C18.7907 23.17 18.292 22.9433 17.952 22.49ZM14.45 14.262C14.0873 13.4913 13.566 12.154 12.886 10.25C12.1833 8.21 11.4807 6.58933 10.778 5.388C10.3473 6.476 9.71267 7.88133 8.874 9.604C8.30733 10.6693 7.66133 12.2107 6.936 14.228C8.38667 14.4093 9.95067 14.5 11.628 14.5C12.8293 14.5 13.77 14.4207 14.45 14.262ZM33.07 15.35C33.2514 15.4633 33.6027 15.6787 34.124 15.996C34.668 16.2907 35.0307 16.642 35.212 17.05C35.3934 17.458 35.484 18.0247 35.484 18.75C35.484 19.566 35.246 20.2913 34.77 20.926C34.294 21.538 33.682 22.014 32.934 22.354C32.39 22.6033 31.7214 22.796 30.928 22.932C30.1574 23.068 29.5454 23.136 29.092 23.136C28.6387 23.136 28.0494 23.068 27.324 22.932C26.6214 22.796 26.134 22.6713 25.862 22.558C25.1594 22.15 24.5474 21.6513 24.026 21.062C23.5274 20.4727 23.278 19.872 23.278 19.26C23.278 18.8067 23.4254 18.4553 23.72 18.206C24.0147 17.934 24.4 17.798 24.876 17.798C25.1027 17.798 25.3407 17.8887 25.59 18.07C25.8394 18.2287 26.0094 18.3987 26.1 18.58C26.3494 19.1693 26.7687 19.6113 27.358 19.906C27.9474 20.2007 28.548 20.348 29.16 20.348C29.9534 20.348 30.69 20.2233 31.37 19.974C32.05 19.702 32.39 19.3393 32.39 18.886C32.39 18.682 32.3334 18.5233 32.22 18.41C32.1294 18.274 31.9934 18.138 31.812 18.002C31.4947 17.7753 31.0187 17.594 30.384 17.458C29.7494 17.2993 29.3414 17.1973 29.16 17.152C28.2307 16.948 27.324 16.642 26.44 16.234C25.556 15.8033 24.8534 15.2933 24.332 14.704C23.8107 14.1147 23.55 13.3553 23.55 12.426C23.55 11.814 23.7767 11.1793 24.23 10.522C24.6834 9.842 25.1934 9.366 25.76 9.094C26.168 8.93533 26.848 8.76533 27.8 8.584C28.7747 8.40267 29.432 8.312 29.772 8.312C30.2934 8.312 30.86 8.36867 31.472 8.482C32.084 8.57267 32.5487 8.73133 32.866 8.958C33.478 9.32067 33.9767 9.706 34.362 10.114C34.7474 10.4993 34.94 10.9413 34.94 11.44C34.94 11.6893 34.8834 11.9613 34.77 12.256C34.6567 12.528 34.5207 12.698 34.362 12.766C34.022 12.9247 33.6254 13.004 33.172 13.004C32.968 13.004 32.798 12.9473 32.662 12.834C32.5487 12.7207 32.39 12.5393 32.186 12.29C31.9367 11.9047 31.6987 11.678 31.472 11.61C31.2 11.542 30.8034 11.4627 30.282 11.372C29.7607 11.2587 29.4094 11.202 29.228 11.202C28.7067 11.202 28.1627 11.3493 27.596 11.644C27.052 11.9387 26.78 12.2787 26.78 12.664C26.78 12.868 26.8594 13.0267 27.018 13.14C27.1994 13.2533 27.3807 13.3553 27.562 13.446C27.766 13.5367 27.902 13.5933 27.97 13.616C28.446 13.8427 28.9674 14.0353 29.534 14.194C30.1234 14.3527 30.486 14.4547 30.622 14.5C31.846 14.7947 32.662 15.078 33.07 15.35ZM48.2107 15.656C48.392 15.7693 48.7433 15.9847 49.2647 16.302C49.8087 16.5967 50.1713 16.948 50.3527 17.356C50.534 17.764 50.6247 18.3307 50.6247 19.056C50.6247 19.872 50.3867 20.5973 49.9107 21.232C49.4347 21.844 48.8227 22.32 48.0747 22.66C47.5533 22.8867 46.9867 23.0227 46.3747 23.068C45.7853 23.1133 45.0713 23.136 44.2327 23.136C43.7793 23.136 43.19 23.068 42.4647 22.932C41.762 22.796 41.2747 22.6713 41.0027 22.558C40.2773 22.15 39.6653 21.674 39.1667 21.13C38.668 20.586 38.4187 20.0307 38.4187 19.464C38.4187 19.0107 38.566 18.648 38.8607 18.376C39.1553 18.104 39.5407 17.968 40.0167 17.968C40.266 17.968 40.504 18.036 40.7307 18.172C40.98 18.2853 41.15 18.4213 41.2407 18.58C41.49 19.1693 41.9093 19.6113 42.4987 19.906C43.088 20.2007 43.6887 20.348 44.3007 20.348C46.454 20.348 47.5307 19.9627 47.5307 19.192C47.5307 18.988 47.474 18.8293 47.3607 18.716C47.27 18.58 47.134 18.444 46.9527 18.308C46.658 18.104 46.2387 17.8887 45.6947 17.662C45.1733 17.4353 44.7087 17.2653 44.3007 17.152C43.3713 16.948 42.4647 16.642 41.5807 16.234C40.7647 15.826 40.096 15.2933 39.5747 14.636C39.0533 13.956 38.7927 13.1287 38.7927 12.154C38.7927 11.5647 39.008 10.9867 39.4387 10.42C39.892 9.83067 40.4133 9.38867 41.0027 9.094C41.4107 8.93533 42.0793 8.76533 43.0087 8.584C43.938 8.40267 44.5727 8.312 44.9127 8.312C45.434 8.312 46.0007 8.36867 46.6127 8.482C47.2247 8.57267 47.6893 8.73133 48.0067 8.958C48.6187 9.32067 49.1173 9.706 49.5027 10.114C49.888 10.4993 50.0807 10.9413 50.0807 11.44C50.0807 11.6893 50.024 11.9613 49.9107 12.256C49.7973 12.528 49.6613 12.698 49.5027 12.766C49.1627 12.9247 48.766 13.004 48.3127 13.004C48.1087 13.004 47.9387 12.9473 47.8027 12.834C47.6893 12.7207 47.5307 12.5393 47.3267 12.29C47.0773 11.9047 46.8393 11.678 46.6127 11.61C46.3407 11.542 45.944 11.4627 45.4227 11.372C44.9013 11.2587 44.55 11.202 44.3687 11.202C43.802 11.202 43.258 11.3153 42.7367 11.542C42.238 11.7687 41.9887 12.0747 41.9887 12.46C41.9887 12.9133 42.3627 13.2987 43.1107 13.616C43.5867 13.8427 44.108 14.0353 44.6747 14.194C45.264 14.3527 45.6267 14.4547 45.7627 14.5C46.08 14.568 46.488 14.7267 46.9867 14.976C47.508 15.2253 47.916 15.452 48.2107 15.656ZM53.1853 11.542C53.004 11.542 52.834 11.474 52.6753 11.338C52.5393 11.1793 52.4713 10.998 52.4713 10.794C52.4713 10.2727 52.698 9.78533 53.1513 9.332C53.2873 9.264 53.5593 9.15067 53.9673 8.992C54.3753 8.83333 54.738 8.754 55.0553 8.754C55.9166 8.754 56.6193 8.992 57.1633 9.468C57.7073 9.92133 57.9793 10.5787 57.9793 11.44C57.9793 11.6893 57.934 12.222 57.8433 13.038C57.7526 13.99 57.7073 14.7267 57.7073 15.248C57.7073 16.8347 57.9226 18.1153 58.3533 19.09C58.512 19.4073 58.7613 19.6567 59.1013 19.838C59.4413 20.0193 59.7473 20.11 60.0193 20.11C60.6766 20.11 61.2093 19.9967 61.6173 19.77C62.0253 19.5433 62.4673 19.1807 62.9433 18.682C63.4193 18.1833 63.7253 17.6167 63.8613 16.982C64.02 16.3473 64.1333 15.4747 64.2013 14.364C64.2466 13.6387 64.292 13.106 64.3373 12.766C64.4506 11.678 64.5073 10.7487 64.5073 9.978C64.5073 9.47933 64.6433 9.07133 64.9153 8.754C65.1873 8.414 65.5613 8.244 66.0373 8.244C66.3093 8.244 66.6153 8.33467 66.9553 8.516C67.318 8.67467 67.556 8.86733 67.6693 9.094C67.8053 9.32067 67.8733 9.69467 67.8733 10.216C67.8733 10.488 67.8393 10.7487 67.7713 10.998C67.6126 11.5647 67.5333 12.2447 67.5333 13.038L67.5673 14.806C67.5673 16.4153 67.6806 17.6053 67.9073 18.376C68.0206 18.7387 68.1793 19.1127 68.3833 19.498C68.5873 19.8607 68.78 20.1667 68.9613 20.416C69.4146 20.9147 69.7093 21.266 69.8453 21.47C69.9813 21.6513 70.0493 21.8327 70.0493 22.014C70.0493 22.286 69.9133 22.5467 69.6413 22.796C69.392 23.0227 69.12 23.136 68.8253 23.136C67.9866 23.136 67.2613 22.8527 66.6493 22.286C66.0373 21.7193 65.584 20.9827 65.2893 20.076C64.5186 20.96 63.8046 21.674 63.1473 22.218C62.694 22.5353 62.1386 22.7733 61.4813 22.932C60.824 23.068 60.1666 23.136 59.5093 23.136C58.6253 23.136 57.73 22.7733 56.8233 22.048C55.9166 21.3227 55.3046 20.484 54.9873 19.532C54.9646 19.4867 54.8966 19.3053 54.7833 18.988C54.6926 18.6707 54.6473 18.1947 54.6473 17.56C54.6473 16.7213 54.6926 15.6673 54.7833 14.398C54.8513 13.582 54.8853 12.834 54.8853 12.154C54.8853 11.95 54.806 11.78 54.6473 11.644C54.5113 11.508 54.3526 11.44 54.1713 11.44C54.0353 11.44 53.8766 11.4627 53.6953 11.508C53.5366 11.5307 53.3666 11.542 53.1853 11.542ZM77.3503 21.64C77.3049 22.0253 77.1463 22.3653 76.8743 22.66C76.6023 22.9547 76.2509 23.102 75.8203 23.102C75.1403 23.102 74.6416 22.9773 74.3243 22.728C74.0069 22.456 73.8483 21.9687 73.8483 21.266C73.8483 20.314 73.9049 19.2713 74.0183 18.138C74.1089 16.8233 74.1543 15.8147 74.1543 15.112C74.1543 14.7493 74.1316 14.296 74.0863 13.752C74.0409 13.2533 74.0183 12.8793 74.0183 12.63C73.9503 12.2447 73.7916 11.9387 73.5423 11.712C73.3156 11.4853 72.9529 11.2927 72.4543 11.134C72.2503 11.0433 72.0803 10.896 71.9443 10.692C71.8083 10.4653 71.7403 10.2613 71.7403 10.08C71.7403 9.55867 71.9443 9.162 72.3523 8.89C72.7603 8.618 73.2589 8.482 73.8483 8.482C74.5056 8.482 75.0723 8.70867 75.5483 9.162C76.0243 9.61533 76.3869 10.182 76.6363 10.862C77.1576 10.114 77.7923 9.51333 78.5403 9.06C79.3109 8.60667 80.0589 8.38 80.7843 8.38C81.7136 8.38 82.4956 8.53867 83.1303 8.856C83.7876 9.15067 84.1163 9.672 84.1163 10.42C84.1163 10.8507 83.9236 11.304 83.5383 11.78C83.1756 12.2333 82.8016 12.46 82.4163 12.46C82.1216 12.46 81.7703 12.324 81.3623 12.052C81.2036 11.9387 81.0223 11.848 80.8183 11.78C80.6369 11.6893 80.4443 11.644 80.2403 11.644C79.8776 11.644 79.5376 11.7007 79.2203 11.814C78.9029 11.9273 78.6876 12.0633 78.5743 12.222C78.2116 12.7887 77.9396 13.2987 77.7583 13.752C77.5996 14.2053 77.5203 14.6927 77.5203 15.214C77.5203 15.5993 77.5089 15.9053 77.4863 16.132L77.4523 18.07L77.4863 19.362C77.4863 20.314 77.4409 21.0733 77.3503 21.64ZM85.7979 15.214C85.7979 13.8313 86.1039 12.6867 86.7159 11.78C87.3279 10.8507 88.1779 9.978 89.2659 9.162C89.5833 8.93533 90.1159 8.74267 90.8639 8.584C91.6119 8.40267 92.2693 8.312 92.8359 8.312C93.5159 8.312 94.2299 8.45933 94.9779 8.754C95.7486 9.026 96.3719 9.34333 96.8479 9.706C97.6866 10.318 98.2646 11.032 98.5819 11.848C98.8993 12.6413 99.0579 13.5933 99.0579 14.704C99.0579 15.18 98.7859 15.6447 98.2419 16.098C97.7206 16.5287 97.1539 16.744 96.5419 16.744L95.2499 16.71C94.5926 16.71 93.6519 16.7327 92.4279 16.778L91.7139 16.812C91.2153 16.8573 90.8413 16.88 90.5919 16.88C90.2293 16.88 89.7306 16.8347 89.0959 16.744C89.1866 17.8093 89.5833 18.648 90.2859 19.26C90.9886 19.8493 91.7479 20.144 92.5639 20.144C93.9919 20.144 94.9893 19.8607 95.5559 19.294C96.0319 18.954 96.3493 18.7387 96.5079 18.648C96.6666 18.5573 96.9159 18.512 97.2559 18.512C97.6186 18.512 97.9359 18.682 98.2079 19.022C98.4799 19.362 98.6159 19.702 98.6159 20.042C98.6159 20.4273 98.3779 20.824 97.9019 21.232C97.4486 21.6173 96.8253 22.0253 96.0319 22.456C95.6013 22.6373 95.0119 22.796 94.2639 22.932C93.5159 23.068 92.8926 23.136 92.3939 23.136C91.6006 23.136 90.7166 22.9093 89.7419 22.456C88.7673 21.98 88.0419 21.4587 87.5659 20.892C87.0899 20.3253 86.6706 19.5207 86.3079 18.478C85.9679 17.4353 85.7979 16.3473 85.7979 15.214ZM92.5639 14.296C94.1733 14.296 95.3519 14.2393 96.0999 14.126C96.0546 13.4687 95.8506 12.936 95.4879 12.528C95.1253 12.0973 94.6266 11.7347 93.9919 11.44C93.7879 11.3493 93.6066 11.2813 93.4479 11.236C93.2893 11.1907 93.1079 11.168 92.9039 11.168C91.8613 11.168 90.9773 11.4513 90.2519 12.018C89.5493 12.5847 89.1299 13.31 88.9939 14.194C90.1273 14.262 91.3173 14.296 92.5639 14.296ZM115.841 1.716C115.841 1.94266 115.784 2.566 115.671 3.586C115.421 6.07933 115.297 8.60667 115.297 11.168C115.297 13.412 115.331 15.1233 115.399 16.302C115.467 17.4807 115.637 18.3873 115.909 19.022C116.181 19.634 116.6 19.94 117.167 19.94C118.255 19.94 118.799 20.3027 118.799 21.028C118.799 21.504 118.561 21.912 118.085 22.252C117.609 22.5693 117.087 22.728 116.521 22.728C115.841 22.728 115.206 22.5693 114.617 22.252C114.027 21.9347 113.563 21.4473 113.223 20.79C112.747 21.4927 112.055 22.0593 111.149 22.49C110.265 22.898 109.403 23.102 108.565 23.102C107.273 23.102 106.128 22.83 105.131 22.286C104.133 21.742 103.363 21.0053 102.819 20.076C102.275 19.124 102.003 18.0813 102.003 16.948C102.003 15.86 102.127 14.8173 102.377 13.82C102.649 12.8 103.011 11.9613 103.465 11.304C104.077 10.4427 104.893 9.76267 105.913 9.264C106.955 8.74267 107.975 8.482 108.973 8.482C109.585 8.482 110.163 8.60667 110.707 8.856C111.251 9.08267 111.727 9.366 112.135 9.706C112.135 8.18733 112.123 7.23533 112.101 6.85V6.136C112.101 4.028 112.237 2.48667 112.509 1.512C112.758 0.559999 113.359 0.0839992 114.311 0.0839992C114.832 0.0839992 115.217 0.197332 115.467 0.423999C115.716 0.650665 115.841 1.08133 115.841 1.716ZM105.369 16.88C105.369 17.9227 105.663 18.7613 106.253 19.396C106.865 20.0307 107.59 20.348 108.429 20.348C109.63 20.348 110.514 19.974 111.081 19.226C111.67 18.478 111.965 17.5147 111.965 16.336L111.931 12.97C111.047 11.9953 110.129 11.508 109.177 11.508C108.519 11.508 107.896 11.678 107.307 12.018C106.74 12.3353 106.287 12.8227 105.947 13.48C105.561 14.228 105.369 15.3613 105.369 16.88ZM131.608 12.698C131.268 12.698 130.974 12.6187 130.724 12.46C130.498 12.2787 130.26 12.0407 130.01 11.746C129.761 11.4513 129.489 11.2587 129.194 11.168C128.922 11.0773 128.605 11.032 128.242 11.032C127.585 11.032 126.939 11.236 126.304 11.644C125.692 12.0293 125.182 12.5733 124.774 13.276C124.389 13.9787 124.196 14.7607 124.196 15.622C124.196 16.574 124.378 17.3673 124.74 18.002C125.126 18.6367 125.726 19.192 126.542 19.668C126.837 19.8267 127.177 19.9513 127.562 20.042C127.97 20.1327 128.322 20.178 128.616 20.178C129.319 20.178 130.226 19.872 131.336 19.26C131.427 19.2147 131.597 19.1353 131.846 19.022C132.118 18.886 132.322 18.818 132.458 18.818C132.708 18.818 132.991 18.9427 133.308 19.192C133.626 19.4187 133.784 19.702 133.784 20.042C133.784 20.722 133.49 21.3 132.9 21.776C132.334 22.252 131.62 22.6033 130.758 22.83C129.897 23.0567 129.047 23.17 128.208 23.17C126.871 23.17 125.624 22.864 124.468 22.252C123.312 21.64 122.394 20.79 121.714 19.702C121.034 18.614 120.694 17.39 120.694 16.03C120.694 14.5567 121.023 13.2307 121.68 12.052C122.338 10.8507 123.222 9.91 124.332 9.23C125.466 8.52733 126.69 8.176 128.004 8.176C129.274 8.176 130.441 8.42533 131.506 8.924C132.594 9.42267 133.138 10.182 133.138 11.202C133.138 12.1993 132.628 12.698 131.608 12.698ZM151.943 21.368C151.943 21.8667 151.671 22.286 151.127 22.626C150.583 22.966 150.084 23.136 149.631 23.136C148.792 23.136 148.112 23.034 147.591 22.83C147.092 22.6033 146.616 22.1953 146.163 21.606C145.596 22.1273 144.803 22.524 143.783 22.796C142.763 23.0453 141.822 23.17 140.961 23.17C139.556 23.17 138.388 22.796 137.459 22.048C136.552 21.2773 136.099 20.1553 136.099 18.682C136.099 18.0473 136.292 17.4127 136.677 16.778C137.062 16.1207 137.538 15.5993 138.105 15.214C138.717 14.806 139.408 14.534 140.179 14.398C140.95 14.2393 141.845 14.16 142.865 14.16C143.341 14.16 143.908 14.2507 144.565 14.432C145.222 14.6133 145.744 14.806 146.129 15.01V14.466C146.129 13.242 145.823 12.4033 145.211 11.95C144.622 11.474 143.67 11.236 142.355 11.236C141.947 11.236 141.573 11.304 141.233 11.44C140.916 11.5533 140.542 11.7233 140.111 11.95C139.703 12.1767 139.318 12.29 138.955 12.29C138.638 12.29 138.332 12.1653 138.037 11.916C137.742 11.644 137.595 11.3607 137.595 11.066C137.595 10.114 138.184 9.42267 139.363 8.992C140.564 8.53867 141.788 8.312 143.035 8.312C143.67 8.312 144.395 8.448 145.211 8.72C146.027 8.96933 146.718 9.32067 147.285 9.774C147.965 10.3407 148.486 11.0207 148.849 11.814C149.234 12.6073 149.427 13.4687 149.427 14.398C149.427 14.6927 149.404 15.1347 149.359 15.724C149.314 16.3587 149.291 16.9027 149.291 17.356L149.257 18.274C149.212 18.7727 149.189 19.1693 149.189 19.464C149.189 19.736 149.28 19.974 149.461 20.178C149.665 20.3593 149.903 20.45 150.175 20.45L151.127 20.416C151.376 20.416 151.569 20.518 151.705 20.722C151.864 20.9033 151.943 21.1187 151.943 21.368ZM140.961 20.484C141.936 20.484 142.752 20.382 143.409 20.178C144.066 19.974 144.86 19.6 145.789 19.056C145.88 18.6707 145.936 18.1607 145.959 17.526C144.712 16.9367 143.681 16.642 142.865 16.642C142.094 16.642 141.471 16.676 140.995 16.744C140.519 16.7893 140.088 16.982 139.703 17.322C139.318 17.662 139.125 18.206 139.125 18.954C139.125 19.3847 139.329 19.7473 139.737 20.042C140.168 20.3367 140.576 20.484 140.961 20.484ZM158.864 21.64C158.819 22.0253 158.66 22.3653 158.388 22.66C158.116 22.9547 157.765 23.102 157.334 23.102C156.654 23.102 156.155 22.9773 155.838 22.728C155.521 22.456 155.362 21.9687 155.362 21.266C155.362 20.314 155.419 19.2713 155.532 18.138C155.623 16.8233 155.668 15.8147 155.668 15.112C155.668 14.7493 155.645 14.296 155.6 13.752C155.555 13.2533 155.532 12.8793 155.532 12.63C155.464 12.2447 155.305 11.9387 155.056 11.712C154.829 11.4853 154.467 11.2927 153.968 11.134C153.764 11.0433 153.594 10.896 153.458 10.692C153.322 10.4653 153.254 10.2613 153.254 10.08C153.254 9.55867 153.458 9.162 153.866 8.89C154.274 8.618 154.773 8.482 155.362 8.482C156.019 8.482 156.586 8.70867 157.062 9.162C157.538 9.61533 157.901 10.182 158.15 10.862C158.671 10.114 159.306 9.51333 160.054 9.06C160.825 8.60667 161.573 8.38 162.298 8.38C163.227 8.38 164.009 8.53867 164.644 8.856C165.301 9.15067 165.63 9.672 165.63 10.42C165.63 10.8507 165.437 11.304 165.052 11.78C164.689 12.2333 164.315 12.46 163.93 12.46C163.635 12.46 163.284 12.324 162.876 12.052C162.717 11.9387 162.536 11.848 162.332 11.78C162.151 11.6893 161.958 11.644 161.754 11.644C161.391 11.644 161.051 11.7007 160.734 11.814C160.417 11.9273 160.201 12.0633 160.088 12.222C159.725 12.7887 159.453 13.2987 159.272 13.752C159.113 14.2053 159.034 14.6927 159.034 15.214C159.034 15.5993 159.023 15.9053 159 16.132L158.966 18.07L159 19.362C159 20.314 158.955 21.0733 158.864 21.64ZM167.652 11.236C167.334 11.1907 167.074 11.0547 166.87 10.828C166.688 10.6013 166.598 10.3293 166.598 10.012C166.598 9.85333 166.632 9.68333 166.7 9.502C166.79 9.32067 166.915 9.162 167.074 9.026C167.368 8.73133 168.162 8.584 169.454 8.584C169.635 7.7 169.726 6.80467 169.726 5.898C169.726 5.558 169.714 5.26333 169.692 5.014C169.669 4.76467 169.658 4.572 169.658 4.436C169.658 3.93733 169.839 3.56333 170.202 3.314C170.587 3.06467 171.018 2.94 171.494 2.94C172.083 2.94 172.48 3.08733 172.684 3.382C172.91 3.67667 173.024 4.22067 173.024 5.014C173.024 6.19267 172.922 7.34867 172.718 8.482C173.08 8.482 173.579 8.45933 174.214 8.414C175.075 8.36867 175.698 8.346 176.084 8.346C176.469 8.346 176.798 8.448 177.07 8.652C177.364 8.83333 177.512 9.094 177.512 9.434C177.512 10.318 177.115 10.8393 176.322 10.998C175.483 11.202 174.18 11.3267 172.412 11.372C172.344 12.256 172.31 13.2193 172.31 14.262C172.31 15.894 172.412 17.2313 172.616 18.274C172.752 18.9993 172.978 19.532 173.296 19.872C173.636 20.1893 174.134 20.348 174.792 20.348C175.177 20.348 175.574 20.246 175.982 20.042C176.254 19.8833 176.503 19.804 176.73 19.804C177.047 19.804 177.274 19.906 177.41 20.11C177.568 20.314 177.648 20.586 177.648 20.926C177.648 21.5607 177.308 22.0933 176.628 22.524C175.948 22.932 175.075 23.136 174.01 23.136C173.352 23.136 172.684 22.9773 172.004 22.66C171.346 22.3427 170.791 21.946 170.338 21.47C170.27 21.402 170.145 21.1413 169.964 20.688C169.782 20.2347 169.624 19.7473 169.488 19.226C169.261 18.1607 169.148 16.6647 169.148 14.738C169.148 13.8993 169.193 12.7773 169.284 11.372L167.652 11.236Z" fill="black"/>
</svg>
